<svg xmlns="http://www.w3.org/2000/svg" viewBox="0 0 64 64">
  <defs>
    <linearGradient id="g" x1="8" y1="8" x2="56" y2="56" gradientUnits="userSpaceOnUse">
      <stop stop-color="#2ce6ff"/>
      <stop offset="1" stop-color="#8f65ff"/>
    </linearGradient>
  </defs>
  <rect width="64" height="64" rx="15" fill="#050711"/>
  <rect x="3" y="3" width="58" height="58" rx="13" fill="none" stroke="url(#g)" stroke-width="2" opacity=".9"/>
  <path d="M18 22h20.5c5 0 8.5 2.8 8.5 7.1 0 3.4-2.1 5.6-5.5 6.6 3.7.8 6 3.2 6 6.6 0 5.1-4.2 8.2-10.2 8.2H18v-6.2h18.4c2.5 0 4-1 4-2.6 0-1.7-1.5-2.5-4-2.5H18v-6h17.1c2.2 0 3.7-.8 3.7-2.4 0-1.5-1.5-2.4-3.7-2.4H18z" fill="url(#g)"/>
  <path d="M15 18v32" stroke="#edf7ff" stroke-width="2" opacity=".18"/>
</svg>
